<svg xmlns="http://www.w3.org/2000/svg" xmlns:xlink="http://www.w3.org/1999/xlink" width="500" zoomAndPan="magnify" viewBox="0 0 375 374.999991" height="500" preserveAspectRatio="xMidYMid meet" version="1.0"><defs><clipPath id="964181d02a"><path d="M 187.5 0 C 83.945312 0 0 83.945312 0 187.5 C 0 291.054688 83.945312 375 187.5 375 C 291.054688 375 375 291.054688 375 187.5 C 375 83.945312 291.054688 0 187.5 0 Z M 187.5 0 " clip-rule="nonzero"/></clipPath><clipPath id="2f2dc09c85"><path d="M 106 159 L 330 159 L 330 272 L 106 272 Z M 106 159 " clip-rule="nonzero"/></clipPath><clipPath id="185908032e"><path d="M 162.675781 327.035156 L 106.976562 271.335938 L 274.078125 104.234375 L 329.777344 159.933594 Z M 162.675781 327.035156 " clip-rule="nonzero"/></clipPath><clipPath id="856ae54bdd"><path d="M 106.734375 271.09375 L 162.4375 326.796875 L 329.539062 159.695312 L 273.835938 103.992188 Z M 106.734375 271.09375 " clip-rule="nonzero"/></clipPath><clipPath id="be036b86d5"><path d="M 156.644531 222.242188 L 306 222.242188 L 306 270.328125 L 156.644531 270.328125 Z M 156.644531 222.242188 " clip-rule="nonzero"/></clipPath><clipPath id="f1b289c133"><path d="M 45 103 L 269 103 L 269 216 L 45 216 Z M 45 103 " clip-rule="nonzero"/></clipPath><clipPath id="fd1a5edd41"><path d="M 212.316406 47.941406 L 268.019531 103.644531 L 100.917969 270.746094 L 45.214844 215.042969 Z M 212.316406 47.941406 " clip-rule="nonzero"/></clipPath><clipPath id="0c003aae20"><path d="M 268.257812 103.882812 L 212.558594 48.183594 L 45.457031 215.285156 L 101.15625 270.984375 Z M 268.257812 103.882812 " clip-rule="nonzero"/></clipPath><clipPath id="0b4633765e"><path d="M 69 104.671875 L 218.3125 104.671875 L 218.3125 152.757812 L 69 152.757812 Z M 69 104.671875 " clip-rule="nonzero"/></clipPath></defs>
<style>
    rect {
        fill: #171717;
    }
    #circle {
        fill: #ff0000;
    }
    @media (prefers-color-scheme: dark) {
      rect { fill: #ff0000; }
      #circle { fill: #ffffff; }
    }
</style>
<g clip-path="url(#964181d02a)"><rect x="-37.5" width="450" id="circle" y="-37.499999" height="449.999989" fill-opacity="1"/><path stroke-linecap="butt" transform="matrix(0.75, 0, 0, 0.75, 0.0000045, 0)" fill="none" stroke-linejoin="miter" d="M 249.999994 0 C 111.927078 0 -0.000006 111.927084 -0.000006 250 C -0.000006 388.072917 111.927078 500.000001 249.999994 500.000001 C 388.072911 500.000001 499.999995 388.072917 499.999995 250 C 499.999995 111.927084 388.072911 0 249.999994 0 Z M 249.999994 0 " stroke="#ffffff" stroke-width="8" stroke-opacity="1" stroke-miterlimit="4"/></g><g clip-path="url(#2f2dc09c85)"><g clip-path="url(#185908032e)"><g clip-path="url(#856ae54bdd)"><path fill="#171717" d="M 106.828125 271.191406 L 218.332031 159.6875 L 329.832031 159.6875 L 274.082031 215.441406 L 218.332031 271.191406 Z M 106.828125 271.191406 " fill-opacity="1" fill-rule="nonzero"/></g></g></g><g clip-path="url(#be036b86d5)"><path fill="#171717" d="M 156.644531 221.5 L 255.789062 221.5 L 305.363281 271.070312 L 206.21875 271.070312 Z M 156.644531 221.5 " fill-opacity="1" fill-rule="nonzero"/></g><g clip-path="url(#f1b289c133)"><g clip-path="url(#fd1a5edd41)"><g clip-path="url(#0c003aae20)"><path fill="#171717" d="M 268.164062 103.789062 L 156.664062 215.289062 L 45.160156 215.289062 L 156.660156 103.789062 Z M 268.164062 103.789062 " fill-opacity="1" fill-rule="nonzero"/></g></g></g><g clip-path="url(#0b4633765e)"><path fill="#171717" d="M 218.3125 153.5 L 119.167969 153.5 L 69.597656 103.925781 L 168.742188 103.925781 Z M 218.3125 153.5 " fill-opacity="1" fill-rule="nonzero"/></g></svg>