<svg xmlns="http://www.w3.org/2000/svg" xmlns:xlink="http://www.w3.org/1999/xlink" width="296" zoomAndPan="magnify" viewBox="0 0 222 105.749996" height="141" preserveAspectRatio="xMidYMid meet" version="1.0"><defs><g/><clipPath id="bb6fcf679c"><path d="M 17 44 L 79 44 L 79 76 L 17 76 Z M 17 44 " clip-rule="nonzero"/></clipPath><clipPath id="2bc119cec3"><path d="M 32.660156 90.90625 L 17.316406 75.5625 L 63.347656 29.53125 L 78.691406 44.875 Z M 32.660156 90.90625 " clip-rule="nonzero"/></clipPath><clipPath id="f3ec68219d"><path d="M 17.25 75.496094 L 32.59375 90.839844 L 78.625 44.808594 L 63.28125 29.464844 Z M 17.25 75.496094 " clip-rule="nonzero"/></clipPath><clipPath id="d70daa07d3"><path d="M 31 62.039062 L 72 62.039062 L 72 75.285156 L 31 75.285156 Z M 31 62.039062 " clip-rule="nonzero"/></clipPath><clipPath id="c6e0ab8f0a"><path d="M 0.261719 29 L 62 29 L 62 61 L 0.261719 61 Z M 0.261719 29 " clip-rule="nonzero"/></clipPath><clipPath id="accba5c6ff"><path d="M 46.335938 14.027344 L 61.679688 29.371094 L 15.648438 75.398438 L 0.304688 60.054688 Z M 46.335938 14.027344 " clip-rule="nonzero"/></clipPath><clipPath id="2b28c9341c"><path d="M 61.746094 29.4375 L 46.402344 14.09375 L 0.371094 60.121094 L 15.714844 75.464844 Z M 61.746094 29.4375 " clip-rule="nonzero"/></clipPath><clipPath id="134a4580ab"><path d="M 7 29.652344 L 47.988281 29.652344 L 47.988281 42.898438 L 7 42.898438 Z M 7 29.652344 " clip-rule="nonzero"/></clipPath></defs><g clip-path="url(#bb6fcf679c)"><g clip-path="url(#2bc119cec3)"><g clip-path="url(#f3ec68219d)"><path fill="#171717" d="M 17.277344 75.523438 L 32.632812 60.164062 L 47.992188 44.808594 L 78.707031 44.808594 L 63.347656 60.164062 L 47.992188 75.523438 Z M 17.277344 75.523438 " fill-opacity="1" fill-rule="nonzero"/></g></g></g><g clip-path="url(#d70daa07d3)"><path fill="#171717" d="M 31 61.835938 L 58.308594 61.835938 L 71.964844 75.488281 L 44.65625 75.488281 Z M 31 61.835938 " fill-opacity="1" fill-rule="nonzero"/></g><g clip-path="url(#c6e0ab8f0a)"><g clip-path="url(#accba5c6ff)"><g clip-path="url(#2b28c9341c)"><path fill="#171717" d="M 61.71875 29.410156 L 46.359375 44.765625 L 31.003906 60.125 L 0.289062 60.125 L 31.003906 29.410156 Z M 61.71875 29.410156 " fill-opacity="1" fill-rule="nonzero"/></g></g></g><g clip-path="url(#134a4580ab)"><path fill="#171717" d="M 47.988281 43.101562 L 20.675781 43.101562 L 7.019531 29.449219 L 34.332031 29.449219 Z M 47.988281 43.101562 " fill-opacity="1" fill-rule="nonzero"/></g><g fill="#000000" fill-opacity="1"><g transform="translate(87.699627, 73.793537)"><g><path d="M 2.109375 0 L 2.109375 -6.578125 L 18.265625 -24.90625 L 2.296875 -24.90625 L 2.296875 -31.671875 L 27.578125 -31.671875 L 27.578125 -25.09375 L 11.171875 -6.765625 L 27.90625 -6.765625 L 27.90625 0 Z M 2.109375 0 "/></g></g></g><g fill="#000000" fill-opacity="1"><g transform="translate(115.408241, 73.793537)"><g><path d="M 19.34375 0.765625 C 16.28125 0.765625 13.523438 0.0625 11.078125 -1.34375 C 8.628906 -2.75 6.691406 -4.695312 5.265625 -7.1875 C 3.835938 -9.675781 3.125 -12.554688 3.125 -15.828125 C 3.125 -19.109375 3.847656 -21.992188 5.296875 -24.484375 C 6.742188 -26.972656 8.691406 -28.921875 11.140625 -30.328125 C 13.585938 -31.734375 16.34375 -32.4375 19.40625 -32.4375 C 22.425781 -32.4375 25.160156 -31.734375 27.609375 -30.328125 C 30.054688 -28.921875 31.992188 -26.972656 33.421875 -24.484375 C 34.847656 -21.992188 35.5625 -19.109375 35.5625 -15.828125 C 35.5625 -12.554688 34.847656 -9.675781 33.421875 -7.1875 C 31.992188 -4.695312 30.046875 -2.75 27.578125 -1.34375 C 25.109375 0.0625 22.363281 0.765625 19.34375 0.765625 Z M 19.34375 -6.328125 C 21.46875 -6.328125 23.316406 -7.125 24.890625 -8.71875 C 26.472656 -10.3125 27.265625 -12.679688 27.265625 -15.828125 C 27.265625 -18.984375 26.472656 -21.359375 24.890625 -22.953125 C 23.316406 -24.546875 21.488281 -25.34375 19.40625 -25.34375 C 17.238281 -25.34375 15.375 -24.546875 13.8125 -22.953125 C 12.257812 -21.359375 11.484375 -18.984375 11.484375 -15.828125 C 11.484375 -12.679688 12.257812 -10.3125 13.8125 -8.71875 C 15.375 -7.125 17.21875 -6.328125 19.34375 -6.328125 Z M 19.34375 -6.328125 "/></g></g></g><g fill="#000000" fill-opacity="1"><g transform="translate(151.225189, 73.793537)"><g><path d="M 8.5625 -36.578125 C 7.070312 -36.578125 5.847656 -37.023438 4.890625 -37.921875 C 3.929688 -38.816406 3.453125 -39.945312 3.453125 -41.3125 C 3.453125 -42.664062 3.929688 -43.78125 4.890625 -44.65625 C 5.847656 -45.53125 7.070312 -45.96875 8.5625 -45.96875 C 10.050781 -45.96875 11.269531 -45.53125 12.21875 -44.65625 C 13.175781 -43.78125 13.65625 -42.664062 13.65625 -41.3125 C 13.65625 -39.945312 13.175781 -38.816406 12.21875 -37.921875 C 11.269531 -37.023438 10.050781 -36.578125 8.5625 -36.578125 Z M 4.46875 0 L 4.46875 -31.671875 L 12.640625 -31.671875 L 12.640625 0 Z M 4.46875 0 "/></g></g></g><g fill="#000000" fill-opacity="1"><g transform="translate(165.39864, 73.793537)"><g><path d="M 18.703125 0.765625 C 15.722656 0.765625 13.0625 0.0390625 10.71875 -1.40625 C 8.382812 -2.851562 6.535156 -4.832031 5.171875 -7.34375 C 3.804688 -9.851562 3.125 -12.703125 3.125 -15.890625 C 3.125 -19.085938 3.804688 -21.929688 5.171875 -24.421875 C 6.535156 -26.910156 8.382812 -28.867188 10.71875 -30.296875 C 13.0625 -31.722656 15.722656 -32.4375 18.703125 -32.4375 C 21.085938 -32.4375 23.171875 -31.988281 24.953125 -31.09375 C 26.742188 -30.195312 28.191406 -28.941406 29.296875 -27.328125 L 29.296875 -45.96875 L 37.46875 -45.96875 L 37.46875 0 L 30.203125 0 L 29.296875 -4.53125 C 28.273438 -3.125 26.925781 -1.890625 25.25 -0.828125 C 23.570312 0.234375 21.390625 0.765625 18.703125 0.765625 Z M 20.4375 -6.390625 C 23.070312 -6.390625 25.226562 -7.269531 26.90625 -9.03125 C 28.59375 -10.800781 29.4375 -13.066406 29.4375 -15.828125 C 29.4375 -18.597656 28.59375 -20.863281 26.90625 -22.625 C 25.226562 -24.394531 23.070312 -25.28125 20.4375 -25.28125 C 17.832031 -25.28125 15.675781 -24.40625 13.96875 -22.65625 C 12.269531 -20.914062 11.421875 -18.660156 11.421875 -15.890625 C 11.421875 -13.128906 12.269531 -10.851562 13.96875 -9.0625 C 15.675781 -7.28125 17.832031 -6.390625 20.4375 -6.390625 Z M 20.4375 -6.390625 "/></g></g></g></svg>